<svg width="21" height="20" viewBox="0 0 21 20" fill="none" xmlns="http://www.w3.org/2000/svg">
<path d="M10.5039 7.59393e-07C8.52676 -0.000769588 6.59375 0.584572 4.94917 1.68205C3.30459 2.77953 2.02225 4.33989 1.2642 6.16594C0.506155 7.992 0.306423 10.0018 0.690249 11.9413C1.07408 13.8808 2.02423 15.6631 3.42064 17.0628C4.81706 18.4625 6.59705 19.4168 8.53567 19.8052C10.4743 20.1935 12.4845 19.9985 14.3124 19.2448C16.1402 18.491 17.7036 17.2123 18.8049 15.5703C19.9062 13.9283 20.4961 11.9967 20.5 10.0196C20.5015 8.70533 20.2442 7.40365 19.7427 6.18885C19.2412 4.97405 18.5053 3.86993 17.5771 2.93953C16.6489 2.00913 15.5465 1.27066 14.3328 0.766295C13.1192 0.261929 11.8182 0.0015424 10.5039 7.59393e-07V7.59393e-07ZM18.6167 13.4612C17.4439 13.8419 16.247 14.1441 15.0341 14.3657C15.4742 13.3869 15.7797 12.3529 15.9424 11.2921C17.0895 11.0404 18.2173 10.708 19.3175 10.2976C19.2804 11.3862 19.0428 12.4587 18.6167 13.4612ZM1.68636 10.2623C2.77309 10.6704 3.88634 11.004 5.01839 11.2608C5.13835 12.3539 5.42902 13.4214 5.87978 14.4244C4.6916 14.2238 3.52581 13.9077 2.39897 13.4808C1.96158 12.4622 1.71984 11.3704 1.68636 10.2623V10.2623ZM14.8814 9.91386C14.8814 10.047 14.8814 10.1801 14.8814 10.3054C13.6378 10.5332 12.3785 10.6641 11.1147 10.6969V7.11041C12.2066 7.08234 13.2951 6.97767 14.3723 6.79718C14.7259 7.79757 14.8982 8.85297 14.8814 9.91386V9.91386ZM15.5235 6.57009C16.4522 6.36533 17.3676 6.10381 18.2643 5.787C18.8169 6.79887 19.1642 7.90993 19.2862 9.05638C18.2369 9.46664 17.1601 9.80289 16.0638 10.0626C16.0638 10.0235 16.0638 9.98042 16.0638 9.93735C16.0772 8.79232 15.8945 7.65344 15.5235 6.57009V6.57009ZM9.92442 14.7925C9.04504 14.7822 8.16679 14.726 7.29325 14.6241C6.76405 13.6483 6.40646 12.5887 6.23609 11.4918C7.45467 11.706 8.68754 11.829 9.92442 11.8598V14.7925ZM11.0991 5.92404V1.93814C12.2288 3.02319 13.1709 4.28806 13.8868 5.68128C12.9641 5.82657 12.0329 5.91158 11.0991 5.93579V5.92404ZM9.92442 5.92404C9.03482 5.90639 8.14706 5.83579 7.26585 5.71261C7.96335 4.34107 8.85917 3.0798 9.92442 1.96946V5.92404ZM9.92442 7.09867V10.6852C8.65533 10.6542 7.39065 10.5233 6.14212 10.2937C6.14212 10.2193 6.14212 10.1488 6.14212 10.0783C6.1668 8.96063 6.38539 7.85572 6.78816 6.81284C7.82576 6.98199 8.87353 7.0814 9.92442 7.11041V7.09867ZM4.96357 10.0431C3.8655 9.77853 2.7874 9.43704 1.73726 9.02114C1.8623 7.88452 2.20811 6.78325 2.75527 5.77917C3.68741 6.1101 4.63943 6.38211 5.6057 6.59358C5.20646 7.7011 4.9896 8.86607 4.96357 10.0431V10.0431ZM9.92442 15.9906V18.0697C9.24647 17.4001 8.62933 16.6715 8.08025 15.8927C8.65974 15.9514 9.27838 15.9828 9.92442 15.9906ZM11.0991 15.9906C11.659 15.9906 12.2463 15.9319 12.8453 15.8771C12.3244 16.6497 11.7403 17.3779 11.0991 18.054V15.9906ZM11.0991 14.816V11.8755C12.3092 11.8485 13.5157 11.7333 14.7091 11.5309C14.4903 12.5981 14.1184 13.6281 13.6049 14.5889C12.724 14.7181 11.8861 14.7651 11.0991 14.7886V14.816ZM17.6026 4.76899C16.7791 5.04961 15.9398 5.28103 15.0889 5.46202C14.3568 3.92847 13.3661 2.53244 12.1601 1.33516C14.3417 1.75436 16.285 2.98048 17.6026 4.76899V4.76899ZM8.89858 1.32341C7.74222 2.556 6.78336 3.95995 6.05598 5.48551C5.15822 5.30094 4.27291 5.06033 3.40523 4.76507C4.73509 2.9643 6.69805 1.73448 8.89858 1.32341V1.32341ZM3.25645 15.0274C4.3389 15.3471 5.44343 15.5866 6.56107 15.7439C7.21101 16.806 7.98232 17.7889 8.85943 18.6727C6.58495 18.2369 4.57275 16.925 3.25645 15.0196V15.0274ZM12.1366 18.6648C12.986 17.7552 13.7307 16.7531 14.3567 15.6774C15.5233 15.4991 16.678 15.2493 17.814 14.9295C17.1609 15.8959 16.323 16.7234 15.3486 17.3645C14.3742 18.0056 13.2826 18.4475 12.1366 18.6648V18.6648Z" fill="#31AD34"/>
</svg>
