<svg width="18" height="14" viewBox="0 0 18 14" fill="none" xmlns="http://www.w3.org/2000/svg">
<path fill-rule="evenodd" clip-rule="evenodd" d="M18 6.95456C18 7.30373 17.7169 7.58679 17.3678 7.58679L8.51653 7.58679C8.16736 7.58679 7.8843 7.30373 7.8843 6.95456C7.8843 6.60539 8.16736 6.32233 8.51653 6.32233L17.3678 6.32233C17.7169 6.32233 18 6.60539 18 6.95456Z" fill="#31AD34"/>
<path fill-rule="evenodd" clip-rule="evenodd" d="M17.8148 6.50747C18.0617 6.75437 18.0617 7.15468 17.8148 7.40158L15.2859 9.9305C15.039 10.1774 14.6387 10.1774 14.3918 9.9305C14.1449 9.6836 14.1449 9.28329 14.3918 9.03639L16.4737 6.95452L14.3918 4.87265C14.1449 4.62575 14.1449 4.22544 14.3918 3.97854C14.6387 3.73164 15.039 3.73164 15.2859 3.97854L17.8148 6.50747Z" fill="#31AD34"/>
<path fill-rule="evenodd" clip-rule="evenodd" d="M12.3588 -3.19992e-08C12.7631 -1.43265e-08 13.0908 0.28306 13.0908 0.632231L13.0908 3.79339C13.0908 4.14256 12.7631 4.42562 12.3588 4.42562C11.9545 4.42562 11.6267 4.14256 11.6267 3.79339L11.6267 1.26446L1.46403 1.26446L1.46403 12.6446L11.6267 12.6446L11.6267 10.1157C11.6267 9.76653 11.9545 9.48347 12.3588 9.48347C12.7631 9.48347 13.0908 9.76653 13.0908 10.1157L13.0908 13.2769C13.0908 13.626 12.7631 13.9091 12.3588 13.9091L0.731968 13.9091C0.327664 13.9091 -8.90181e-05 13.626 -8.90028e-05 13.2769L-8.84501e-05 0.632231C-8.84349e-05 0.283059 0.327664 -4.50604e-07 0.731969 -4.32931e-07L12.3588 -3.19992e-08Z" fill="#31AD34"/>
</svg>
