<svg width="18" height="15" viewBox="0 0 18 15" fill="none" xmlns="http://www.w3.org/2000/svg">
<path fill-rule="evenodd" clip-rule="evenodd" d="M18 7.40915C18 7.75832 17.7169 8.04138 17.3678 8.04138L8.51653 8.04138C8.16736 8.04138 7.8843 7.75832 7.8843 7.40915C7.8843 7.05998 8.16736 6.77692 8.51653 6.77692L17.3678 6.77692C17.7169 6.77692 18 7.05998 18 7.40915Z" fill="#B8B8B8"/>
<path fill-rule="evenodd" clip-rule="evenodd" d="M17.8148 6.96206C18.0617 7.20896 18.0617 7.60927 17.8148 7.85617L15.2859 10.3851C15.039 10.632 14.6387 10.632 14.3918 10.3851C14.1449 10.1382 14.1449 9.73788 14.3918 9.49098L16.4737 7.40911L14.3918 5.32724C14.1449 5.08034 14.1449 4.68003 14.3918 4.43313C14.6387 4.18623 15.039 4.18623 15.2859 4.43313L17.8148 6.96206Z" fill="#B8B8B8"/>
<path fill-rule="evenodd" clip-rule="evenodd" d="M12.3588 0.45459C12.7631 0.45459 13.0908 0.737649 13.0908 1.08682L13.0908 4.24798C13.0908 4.59715 12.7631 4.88021 12.3588 4.88021C11.9545 4.88021 11.6267 4.59715 11.6267 4.24798L11.6267 1.71905L1.46403 1.71905L1.46403 13.0992L11.6267 13.0992L11.6267 10.5703C11.6267 10.2211 11.9545 9.93806 12.3588 9.93806C12.7631 9.93806 13.0908 10.2211 13.0908 10.5703L13.0908 13.7314C13.0908 14.0806 12.7631 14.3637 12.3588 14.3637L0.731968 14.3637C0.327664 14.3637 -8.90181e-05 14.0806 -8.90028e-05 13.7314L-8.84501e-05 1.08682C-8.84349e-05 0.737649 0.327664 0.454589 0.731969 0.454589L12.3588 0.45459Z" fill="#B8B8B8"/>
</svg>
