<svg width="17" height="23" viewBox="0 0 17 23" fill="none" xmlns="http://www.w3.org/2000/svg">
<path fill-rule="evenodd" clip-rule="evenodd" d="M8.24816 22.1452C8.32643 22.1836 8.41242 22.2039 8.49964 22.2043C8.58686 22.2039 8.67284 22.1836 8.75111 22.1452C8.82938 22.1067 8.8979 22.0509 8.95148 21.9821L15.2509 13.6607C16.1698 12.4608 16.7517 11.0374 16.9364 9.5374C17.1211 8.03741 16.9019 6.51532 16.3014 5.12841C15.7354 3.76672 14.8161 2.58081 13.6386 1.69316C12.461 0.805516 11.0678 0.248304 9.60289 0.0790724C9.25271 0.0376535 8.87617 0 8.49964 0H7.98002C6.45956 0.0577762 4.98516 0.537406 3.72171 1.38525C2.45826 2.23309 1.4556 3.4157 0.825855 4.80082C0.154055 6.2189 -0.115871 7.79409 0.0454582 9.35494C0.206787 10.9158 0.79319 12.4025 1.74084 13.6532L8.0478 21.9821C8.10138 22.0509 8.16989 22.1067 8.24816 22.1452ZM8.04403 1.11831H8.49964C8.81969 1.1296 9.15104 1.1522 9.46733 1.18985C10.7385 1.33612 11.9475 1.8196 12.9691 2.59022C13.9906 3.36083 14.7875 4.39055 15.2773 5.57272C15.7955 6.77807 15.9829 8.09984 15.8201 9.40175C15.6573 10.7037 15.1501 11.9386 14.351 12.9792L8.49964 20.7057L2.64075 12.9792C1.81398 11.8884 1.30412 10.5906 1.16727 9.22877C1.03042 7.86691 1.27188 6.49369 1.86509 5.26019C2.40959 4.0647 3.27585 3.0442 4.36703 2.31276C5.45821 1.58132 6.73131 1.16776 8.04403 1.11831ZM6.5123 11.0585C7.10054 11.4515 7.79214 11.6613 8.49962 11.6613C9.44801 11.6603 10.3573 11.2831 11.0279 10.6125C11.6985 9.94189 12.0757 9.03262 12.0767 8.08423C12.0767 7.37675 11.8669 6.68515 11.4739 6.09691C11.0808 5.50866 10.5221 5.05017 9.86851 4.77943C9.21488 4.50869 8.49565 4.43785 7.80176 4.57588C7.10788 4.7139 6.4705 5.05458 5.97024 5.55485C5.46997 6.05511 5.12929 6.69249 4.99127 7.38637C4.85324 8.08026 4.92408 8.79949 5.19482 9.45312C5.46557 10.1067 5.92405 10.6654 6.5123 11.0585ZM7.13987 6.04922C7.54236 5.78029 8.01555 5.63675 8.49962 5.63675C9.14842 5.63774 9.77037 5.89592 10.2291 6.3547C10.6879 6.81347 10.9461 7.43542 10.9471 8.08423C10.9471 8.56829 10.8036 9.04149 10.5346 9.44397C10.2657 9.84646 9.88344 10.1602 9.43623 10.3454C8.98901 10.5306 8.4969 10.5791 8.02214 10.4847C7.54737 10.3902 7.11128 10.1571 6.76899 9.81485C6.4267 9.47257 6.1936 9.03647 6.09917 8.5617C6.00473 8.08694 6.0532 7.59484 6.23844 7.14762C6.42369 6.7004 6.73739 6.31816 7.13987 6.04922Z" fill="#31AD34"/>
</svg>
