<svg width="109" height="32" viewBox="0 0 109 32" fill="none" xmlns="http://www.w3.org/2000/svg">
<path d="M27.1162 3.06087H31.3411C31.1388 2.42726 30.7977 1.84757 30.343 1.36467C29.8883 0.881777 29.3317 0.508031 28.7143 0.271072L27.1162 3.06087Z" fill="white"/>
<path d="M25.8149 3.76143L27.9375 0.0744704C27.2907 -0.0476764 26.6247 -0.0192696 25.9904 0.15752C25.3562 0.334311 24.7704 0.654807 24.2778 1.09453L25.8149 3.76143Z" fill="white"/>
<path d="M25.7251 5.08873L23.7245 1.67215C23.1162 2.44797 22.7853 3.40774 22.7852 4.3964C22.7888 4.62836 22.8092 4.85975 22.8462 5.08873H25.7251Z" fill="white"/>
<path d="M28.5391 5.32632L26.5669 8.76748C26.7623 8.79486 26.9592 8.80991 27.1565 8.81255C28.1789 8.81359 29.1692 8.45252 29.9542 7.79249L28.5391 5.32632Z" fill="white"/>
<path d="M27.3193 5.87523H23.0415C23.2653 6.50603 23.6282 7.07746 24.1029 7.5465C24.5777 8.01554 25.1518 8.36996 25.7822 8.5831L27.3193 5.87523Z" fill="white"/>
<path d="M28.6611 3.95396L30.5357 7.23126C31.1891 6.43812 31.5459 5.43939 31.5442 4.40869C31.5524 4.26133 31.5524 4.11362 31.5442 3.96625L28.6611 3.95396Z" fill="white"/>
<path d="M34.4443 9.46675V3.04764H38.5502V4.23817H35.7283V5.81858H38.261V6.96734H35.7142V9.46675H34.4443Z" fill="white"/>
<path d="M39.9473 3.04764H41.4288L42.8891 5.59579L44.3495 3.04764H45.7604L43.4676 6.7724V9.46675H42.2048V6.7724L39.9473 3.04764Z" fill="white"/>
<path d="M47.5166 9.46676V3.04764H51.5943V4.22425H48.7724V5.70022H51.3121V6.81417H48.7724V8.29711H51.5943V9.47372L47.5166 9.46676Z" fill="white"/>
<path d="M56.7093 2.91538C57.3827 2.90433 58.0442 3.0913 58.6096 3.45248C59.1751 3.81367 59.6188 4.33273 59.8843 4.94359C60.1498 5.55445 60.2251 6.22946 60.1006 6.88269C59.9761 7.53592 59.6575 8.13781 59.1852 8.61174C58.713 9.08566 58.1085 9.41018 57.4488 9.54397C56.789 9.67777 56.1038 9.61478 55.4805 9.36304C54.8571 9.1113 54.3238 8.68218 53.9484 8.13033C53.573 7.57849 53.3724 6.92887 53.3723 6.26418C53.3559 5.82478 53.4306 5.38669 53.5917 4.97675C53.7529 4.56681 53.9972 4.19366 54.3096 3.88014C54.622 3.56663 54.9959 3.31935 55.4086 3.15346C55.8212 2.98757 56.2638 2.90656 56.7093 2.91538ZM56.7093 8.3946C57.1444 8.42395 57.5784 8.32339 57.9549 8.10599C58.3313 7.8886 58.6327 7.56444 58.8199 7.17567C59.0072 6.78692 59.0715 6.35155 59.0046 5.92622C58.9376 5.50089 58.7426 5.10528 58.4447 4.79085C58.1469 4.47642 57.76 4.25773 57.3345 4.16323C56.909 4.06872 56.4645 4.10278 56.0589 4.26097C55.6532 4.41915 55.3052 4.69415 55.0601 5.05018C54.815 5.40621 54.6841 5.82679 54.6845 6.25722C54.663 6.53156 54.6995 6.80731 54.7918 7.06698C54.884 7.32664 55.03 7.56453 55.2204 7.76553C55.4108 7.96654 55.6415 8.12626 55.8978 8.23456C56.1541 8.34285 56.4305 8.39736 56.7093 8.3946Z" fill="white"/>
<path d="M34.4443 20.3208V13.9087H36.7724C37.635 13.9087 38.4622 14.2468 39.0721 14.8487C39.6821 15.4506 40.0247 16.267 40.0247 17.1182C40.0247 17.9694 39.6821 18.7858 39.0721 19.3877C38.4622 19.9896 37.635 20.3278 36.7724 20.3278L34.4443 20.3208ZM36.716 19.1721C37.1983 19.0796 37.633 18.8245 37.9456 18.4504C38.2581 18.0763 38.429 17.6066 38.429 17.1217C38.429 16.6368 38.2581 16.1671 37.9456 15.793C37.633 15.4189 37.1983 15.1638 36.716 15.0713H35.7072V19.1721H36.716Z" fill="white"/>
<path d="M44.9488 13.7763C45.6222 13.7652 46.2837 13.9522 46.8491 14.3134C47.4146 14.6746 47.8583 15.1936 48.1238 15.8045C48.3893 16.4153 48.4646 17.0904 48.3401 17.7436C48.2156 18.3968 47.8969 18.9987 47.4247 19.4726C46.9525 19.9466 46.348 20.2711 45.6882 20.4049C45.0285 20.5387 44.3433 20.4757 43.72 20.2239C43.0966 19.9722 42.5633 19.5431 42.1879 18.9912C41.8124 18.4394 41.6119 17.7898 41.6118 17.1251C41.5964 16.6859 41.6718 16.2483 41.8333 15.8388C41.9948 15.4293 42.2391 15.0566 42.5513 14.7432C42.8635 14.4299 43.2371 14.1826 43.6492 14.0164C44.0614 13.8501 44.5036 13.7684 44.9488 13.7763ZM44.9488 19.2485C45.3823 19.2765 45.8144 19.1751 46.1888 18.9575C46.5632 18.74 46.8626 18.4163 47.0482 18.0286C47.2338 17.6409 47.2969 17.2071 47.2294 16.7835C47.1619 16.36 46.9668 15.9662 46.6696 15.6535C46.3724 15.3408 45.9867 15.1235 45.5627 15.0299C45.1387 14.9363 44.696 14.9707 44.292 15.1286C43.8881 15.2865 43.5416 15.5607 43.2977 15.9155C43.0537 16.2703 42.9235 16.6893 42.924 17.1181C42.9024 17.3921 42.9389 17.6676 43.0313 17.9269C43.1236 18.1862 43.2697 18.4236 43.4602 18.6241C43.6507 18.8246 43.8815 18.9836 44.1378 19.0911C44.3941 19.1987 44.6703 19.2523 44.9488 19.2485Z" fill="white"/>
<path d="M56.3216 20.3208V15.8302L54.452 20.3208H53.4008L51.5313 15.865V20.3208H50.3179V13.9087H51.9899L53.9441 18.5455L55.8489 13.9087H57.5703V20.3208H56.3216Z" fill="white"/>
<path d="M63.8488 18.8657H61.2032L60.66 20.3278H59.3267L61.817 13.9087H63.2844L65.7607 20.3208H64.385L63.8488 18.8657ZM61.6265 17.7239H63.4255L62.5225 15.2941L61.6265 17.7239Z" fill="white"/>
<path d="M67.5103 20.3208V13.9087H68.7942V20.3208H67.5103Z" fill="white"/>
<path d="M75.4185 20.3208L72.4625 15.7676V20.3208H71.1997V13.9087H72.78L75.482 18.1556V13.9087H76.7519V20.3208H75.4185Z" fill="white"/>
<path d="M34.4443 31.1888V24.7697H35.7283V31.1888H34.4443Z" fill="white"/>
<path d="M42.3599 31.1888L39.3968 26.6355V31.1888H38.127V24.7697H39.7072L42.4092 29.0166V24.7697H43.6791V31.1888H42.3599Z" fill="white"/>
<path d="M48.8148 25.9602V31.1888H47.5378V25.9602H45.4849V24.7697H50.8677V25.9602H48.8148Z" fill="white"/>
<path d="M52.6738 31.1888V24.7697H56.7445V25.9463H53.9225V27.4153H56.4693V28.5293H53.9225V30.0122H56.7445V31.1888H52.6738Z" fill="white"/>
<path d="M58.9316 31.1888V24.7697H60.1945V29.9983H63.094V31.1888H58.9316Z" fill="white"/>
<path d="M64.9844 31.1888V24.7697H66.2472V29.9983H69.1679V31.1888H64.9844Z" fill="white"/>
<path d="M71.0376 31.1888V24.7697H72.3216V31.1888H71.0376Z" fill="white"/>
<path d="M79.581 31.1887L79.4963 30.4925C79.2749 30.7817 78.9846 31.0125 78.651 31.1644C78.3175 31.3162 77.9511 31.3843 77.5844 31.3627C77.1441 31.3702 76.7069 31.2878 76.3004 31.1207C75.8938 30.9536 75.5267 30.7053 75.222 30.3915C74.9173 30.0777 74.6815 29.7052 74.5296 29.2972C74.3777 28.8893 74.3129 28.4547 74.3392 28.0209C74.3171 27.582 74.3861 27.1432 74.5421 26.7315C74.6981 26.3199 74.9377 25.9441 75.2463 25.6272C75.5548 25.3103 75.9258 25.059 76.3364 24.8888C76.747 24.7185 77.1885 24.633 77.6338 24.6373C78.2825 24.5896 78.9289 24.755 79.4725 25.1075C80.016 25.4601 80.4262 25.9802 80.6392 26.5867L79.4257 27.0184C79.3163 26.6464 79.0823 26.322 78.762 26.0982C78.4416 25.8744 78.0539 25.7644 77.662 25.786C77.111 25.8392 76.5997 26.0929 76.2277 26.4976C75.8557 26.9024 75.6497 27.4292 75.6497 27.9757C75.6497 28.5221 75.8557 29.0489 76.2277 29.4537C76.5997 29.8584 77.111 30.1121 77.662 30.1653C78.0561 30.2004 78.4497 30.0936 78.77 29.8645C79.0904 29.6354 79.3158 29.2995 79.4046 28.919H77.3516V27.8538H80.5969V31.1887H79.581Z" fill="white"/>
<path d="M82.8052 31.1888V24.7697H86.8758V25.9463H84.0539V27.4153H86.5936V28.5293H84.0539V30.0122H86.8758V31.1888H82.8052Z" fill="white"/>
<path d="M93.2745 31.1888L90.3326 26.6355V31.1888H89.0698V24.7697H90.6501L93.3521 29.0166V24.7697H94.622V31.1888H93.2745Z" fill="white"/>
<path d="M96.6255 27.9793C96.6102 27.5425 96.6847 27.1072 96.8445 26.6996C97.0043 26.292 97.2461 25.9206 97.5553 25.6077C97.8644 25.2948 98.2346 25.0469 98.6434 24.8789C99.0523 24.711 99.4914 24.6265 99.9342 24.6305C100.601 24.5739 101.266 24.7528 101.811 25.1353C102.357 25.5179 102.747 26.0792 102.911 26.7192L101.719 27.0951C101.629 26.7037 101.399 26.3574 101.071 26.1196C100.743 25.8818 100.34 25.7684 99.9342 25.8002C99.3918 25.8435 98.8858 26.0867 98.5168 26.4814C98.1479 26.8762 97.943 27.3936 97.943 27.9306C97.943 28.4676 98.1479 28.985 98.5168 29.3797C98.8858 29.7745 99.3918 30.0177 99.9342 30.061C100.344 30.0802 100.748 29.961 101.081 29.7231C101.413 29.4852 101.653 29.1427 101.761 28.7521L102.947 29.1002C102.776 29.7508 102.383 30.3233 101.834 30.7214C101.285 31.1196 100.614 31.3191 99.9342 31.2863C99.4937 31.2951 99.0559 31.2152 98.6477 31.0516C98.2395 30.8879 97.8693 30.644 97.5597 30.3345C97.2501 30.0251 97.0076 29.6567 96.847 29.2518C96.6864 28.8469 96.611 28.4139 96.6255 27.9793Z" fill="white"/>
<path d="M104.929 31.1888V24.7697H109V25.9463H106.178V27.4153H108.718V28.5293H106.178V30.0122H109V31.1888H104.929Z" fill="white"/>
<path d="M19.2867 27.6889C19.2867 28.9547 19.3599 30.3394 19.4371 31.1054H14.5982C14.4731 30.383 14.4091 29.6512 14.4071 28.9178C13.5694 30.4131 11.6623 31.5684 9.14521 31.5684C3.81017 31.5684 0 27.3529 0 21.6177C0 16.0872 3.69631 11.7489 8.99476 11.7489C12.2478 11.7489 13.7564 13.0926 14.281 14.0922V0.847809H19.2867V27.6889ZM9.75516 26.9965C12.3495 26.9965 14.3664 25.0015 14.3664 21.5808C14.3664 18.1601 12.3332 16.3207 9.75516 16.3207C7.1771 16.3207 5.09106 18.2421 5.09106 21.6177C5.09106 24.9933 7.08764 26.9965 9.75516 26.9965Z" fill="white"/>
<path d="M29.3134 12.2117H24.2427V31.1053H29.3134V12.2117Z" fill="white"/>
</svg>
