<svg width="37" height="26" viewBox="0 0 37 26" fill="none" xmlns="http://www.w3.org/2000/svg">
<path fill-rule="evenodd" clip-rule="evenodd" d="M18.5 7.93908C18.5192 7.93943 18.5385 7.93961 18.5578 7.93961C18.6172 7.93961 18.6764 7.93792 18.7355 7.93455C20.5943 8.08197 22.1958 9.61965 22.7243 11.7627C22.7273 11.7748 22.7307 11.7867 22.7346 11.7983C21.6194 12.8229 20.1326 13.4483 18.5 13.4483C16.8674 13.4483 15.3806 12.8229 14.2654 11.7983C14.2693 11.7867 14.2727 11.7748 14.2757 11.7627C14.8042 9.61965 16.4057 8.08197 18.2645 7.93455C18.3236 7.93792 18.3828 7.93961 18.4422 7.93961C18.4615 7.93961 18.4808 7.93943 18.5 7.93908ZM20.3425 7.37874C21.8017 7.97675 22.9549 9.28515 23.5346 10.9095C24.3084 9.86551 24.7661 8.5725 24.7661 7.17241C24.7661 3.70635 21.9607 0.896552 18.5 0.896552C15.0393 0.896552 12.2339 3.70635 12.2339 7.17241C12.2339 8.5725 12.6916 9.86551 13.4654 10.9095C14.0451 9.28515 15.1983 7.97675 16.6575 7.37874C16.1674 7.03705 15.785 6.56152 15.5561 6.00819C15.3197 5.43649 15.2578 4.80741 15.3783 4.2005C15.4989 3.59358 15.7964 3.03609 16.2333 2.59853C16.6702 2.16097 17.2268 1.86299 17.8328 1.74227C18.0535 1.69829 18.2772 1.67855 18.5 1.68268C18.7228 1.67855 18.9465 1.69829 19.1672 1.74227C19.7732 1.86299 20.3298 2.16097 20.7667 2.59853C21.2036 3.03609 21.5011 3.59358 21.6217 4.2005C21.7422 4.80741 21.6803 5.43649 21.4439 6.00819C21.215 6.56152 20.8326 7.03705 20.3425 7.37874ZM24.026 11.7347C25.0476 10.4949 25.6613 8.90545 25.6613 7.17241C25.6613 3.2112 22.4551 0 18.5 0C14.5449 0 11.3387 3.2112 11.3387 7.17241C11.3387 9.02149 12.0373 10.7071 13.1847 11.979L12.446 13.9872C11.1366 12.554 9.25375 11.6552 7.16129 11.6552C3.20622 11.6552 0 14.8664 0 18.8276C0 22.7888 3.20622 26 7.16129 26C11.1164 26 14.3226 22.7888 14.3226 18.8276C14.3226 17.3309 13.8649 15.9413 13.082 14.7915L13.1014 14.7986L13.8882 12.6598C15.1342 13.7112 16.7432 14.3448 18.5 14.3448C20.2568 14.3448 21.8658 13.7112 23.1118 12.6598L23.8986 14.7986L23.9181 14.7915C23.1351 15.9413 22.6774 17.3309 22.6774 18.8276C22.6774 22.7888 25.8836 26 29.8387 26C33.7938 26 37 22.7888 37 18.8276C37 14.8664 33.7938 11.6552 29.8387 11.6552C27.7463 11.6552 25.8634 12.554 24.554 13.9872L23.8153 11.979C23.8874 11.8992 23.9576 11.8178 24.026 11.7347ZM18.5 2.57945C18.7718 2.58651 19.0414 2.64335 19.2951 2.74861C19.7023 2.91756 20.0504 3.20367 20.2953 3.57075C20.5402 3.93783 20.6709 4.3694 20.6709 4.81088C20.6709 5.40289 20.4361 5.97066 20.0181 6.38927C19.6607 6.74727 19.1943 6.9711 18.6971 7.02842C18.6508 7.02707 18.6044 7.02638 18.5579 7.02638C18.5385 7.02638 18.5193 7.0265 18.5 7.02674C18.4807 7.0265 18.4615 7.02638 18.4421 7.02638C18.3956 7.02638 18.3492 7.02707 18.3029 7.02842C17.8057 6.9711 17.3393 6.74727 16.9819 6.38927C16.5639 5.97066 16.3291 5.40289 16.3291 4.81088C16.3291 4.3694 16.4598 3.93783 16.7047 3.57075C16.9496 3.20367 17.2977 2.91756 17.7049 2.74861C17.9586 2.64335 18.2282 2.58651 18.5 2.57945ZM6.02363 13.5755C6.59445 13.3387 7.22255 13.2767 7.82853 13.3974C8.4345 13.5182 8.99112 13.8161 9.42801 14.2537C9.86489 14.6913 10.1624 15.2488 10.2829 15.8557C10.4035 16.4626 10.3416 17.0917 10.1052 17.6634C9.87634 18.2167 9.49391 18.6922 9.0038 19.0339C10.463 19.6319 11.6162 20.9403 12.1959 22.5647C12.9697 21.5207 13.4274 20.2277 13.4274 18.8276C13.4274 15.3615 10.622 12.5517 7.16129 12.5517C3.7006 12.5517 0.895161 15.3615 0.895161 18.8276C0.895161 20.2817 1.38891 21.6202 2.21764 22.6843C2.77248 21.0122 3.94302 19.6504 5.43646 19.0354C5.28508 18.93 5.14232 18.8107 5.01017 18.6784C4.42433 18.0916 4.09521 17.2958 4.09521 16.4661C4.09521 15.8472 4.27842 15.2423 4.62168 14.7278C4.96493 14.2133 5.45282 13.8123 6.02363 13.5755ZM2.92666 23.4535C4.04186 24.4781 5.52866 25.1034 7.16129 25.1034C8.84704 25.1034 10.3773 24.4367 11.5036 23.3522C10.9367 21.2098 9.32151 19.7045 7.45726 19.5857C7.37821 19.5917 7.29876 19.5948 7.21909 19.5948C7.13951 19.5948 7.06024 19.5917 6.98143 19.5857C5.09899 19.7066 3.47075 21.2535 2.93701 23.4178C2.93402 23.43 2.93056 23.4419 2.92666 23.4535ZM7.44369 18.6869C7.36928 18.6833 7.29442 18.6816 7.21914 18.6816C7.14391 18.6816 7.06911 18.6833 6.99475 18.6869C6.48606 18.6354 6.0079 18.4098 5.64315 18.0444C5.22518 17.6258 4.99037 17.0581 4.99037 16.4661C4.99037 16.0246 5.12108 15.593 5.36598 15.2259C5.61087 14.8588 5.95895 14.5727 6.3662 14.4038C6.77344 14.2348 7.22156 14.1906 7.65389 14.2768C8.08622 14.3629 8.48334 14.5755 8.79503 14.8877C9.10672 15.1998 9.31899 15.5976 9.40498 16.0306C9.49098 16.4636 9.44684 16.9124 9.27816 17.3203C9.10947 17.7281 8.82381 18.0768 8.4573 18.322C8.15335 18.5254 7.80512 18.6502 7.44369 18.6869ZM30.9764 13.5755C30.4056 13.3387 29.7774 13.2767 29.1715 13.3974C28.5655 13.5182 28.0089 13.8161 27.572 14.2537C27.1351 14.6913 26.8376 15.2488 26.7171 15.8557C26.5965 16.4626 26.6584 17.0917 26.8948 17.6634C27.1237 18.2167 27.5061 18.6922 27.9962 19.0339C26.537 19.6319 25.3838 20.9403 24.8041 22.5647C24.0303 21.5207 23.5726 20.2277 23.5726 18.8276C23.5726 15.3615 26.378 12.5517 29.8387 12.5517C33.2994 12.5517 36.1048 15.3615 36.1048 18.8276C36.1048 20.2817 35.6111 21.6202 34.7824 22.6843C34.2275 21.0122 33.057 19.6504 31.5635 19.0354C31.7149 18.93 31.8577 18.8107 31.9898 18.6784C32.5757 18.0916 32.9048 17.2958 32.9048 16.4661C32.9048 15.8472 32.7216 15.2423 32.3783 14.7278C32.0351 14.2133 31.5472 13.8123 30.9764 13.5755ZM34.0733 23.4535C32.9581 24.4781 31.4713 25.1034 29.8387 25.1034C28.153 25.1034 26.6227 24.4367 25.4964 23.3522C26.0633 21.2098 27.6785 19.7045 29.5427 19.5857C29.6218 19.5917 29.7012 19.5948 29.7809 19.5948C29.8605 19.5948 29.9398 19.5917 30.0186 19.5857C31.901 19.7066 33.5293 21.2535 34.063 23.4178C34.066 23.43 34.0694 23.4419 34.0733 23.4535ZM29.5563 18.6869C29.6307 18.6833 29.7056 18.6816 29.7809 18.6816C29.8561 18.6816 29.9309 18.6833 30.0053 18.6869C30.5139 18.6354 30.9921 18.4098 31.3569 18.0444C31.7748 17.6258 32.0096 17.0581 32.0096 16.4661C32.0096 16.0246 31.8789 15.593 31.634 15.2259C31.3891 14.8588 31.0411 14.5727 30.6338 14.4038C30.2266 14.2348 29.7784 14.1906 29.3461 14.2768C28.9138 14.3629 28.5167 14.5755 28.205 14.8877C27.8933 15.1998 27.681 15.5976 27.595 16.0306C27.509 16.4636 27.5532 16.9124 27.7218 17.3203C27.8905 17.7281 28.1762 18.0768 28.5427 18.322C28.8466 18.5254 29.1949 18.6502 29.5563 18.6869Z" fill="#FFA800"/>
</svg>
