<svg width="20" height="20" viewBox="0 0 20 20" fill="none" xmlns="http://www.w3.org/2000/svg">
<path d="M10 5.74554e-05C7.36196 -0.00889393 4.82798 1.02843 2.95348 2.88465C1.07898 4.74088 0.0168897 7.26458 6.62103e-09 9.90258C-9.38334e-05 12.4578 0.997313 14.9121 2.77983 16.7429C2.81187 16.7906 2.85163 16.8326 2.89748 16.8673C4.29106 18.2622 6.06533 19.2148 7.99797 19.6057C9.9306 19.9966 11.9356 19.8085 13.7618 19.0648C15.5879 18.3211 17.154 17.055 18.2637 15.4252C19.3734 13.7953 19.9774 11.8742 20 9.90258C19.9831 7.26458 18.921 4.74088 17.0465 2.88465C15.172 1.02843 12.638 -0.00889393 10 5.74554e-05V5.74554e-05ZM10 1.00846C12.3709 0.998617 14.6489 1.92941 16.3344 3.59672C18.02 5.26402 18.9756 7.53175 18.9916 9.90258C18.9921 12.0098 18.2358 14.0472 16.8605 15.6438C16.3877 14.6274 15.6968 13.7277 14.837 13.0085C13.9772 12.2893 12.9696 11.7682 11.8857 11.4824C12.8124 11.0731 13.571 10.3588 14.0353 9.45835C14.4995 8.55789 14.6413 7.52561 14.4372 6.53331C14.233 5.54102 13.6952 4.64856 12.9132 4.00448C12.1313 3.36041 11.1523 3.00356 10.1393 2.99334C9.12624 2.98312 8.14026 3.32013 7.34544 3.9483C6.55062 4.57646 5.9949 5.45788 5.77077 6.44585C5.54664 7.43383 5.66763 8.46876 6.11359 9.37841C6.55954 10.288 7.30358 11.0175 8.22185 11.4454C7.12409 11.7364 6.09912 12.2532 5.21242 12.9628C4.32572 13.6724 3.59681 14.5592 3.07227 15.5664C1.73896 13.9803 1.00809 11.9746 1.0084 9.90258C1.0244 7.53175 1.97997 5.26402 3.66555 3.59672C5.35113 1.92941 7.62914 0.998617 10 1.00846V1.00846ZM6.66891 7.43535C6.66891 6.75829 6.86977 6.09644 7.24606 5.53358C7.62236 4.97071 8.15718 4.53213 8.78283 4.27334C9.40848 4.01454 10.0968 3.94717 10.7608 4.07975C11.4248 4.21233 12.0345 4.5389 12.5127 5.01813C12.991 5.49735 13.3164 6.1077 13.4477 6.77191C13.5789 7.43613 13.5102 8.12436 13.2502 8.7495C12.9902 9.37464 12.5505 9.9086 11.9869 10.2838C11.4233 10.659 10.7611 10.8585 10.084 10.8572C9.17794 10.8545 8.30982 10.4929 7.66975 9.85161C7.02967 9.21027 6.66979 8.34145 6.66891 7.43535V7.43535ZM3.8084 16.3429C5.06891 13.7984 7.42521 12.2286 10.037 12.2286C11.349 12.2517 12.6245 12.664 13.7018 13.4133C14.779 14.1626 15.6093 15.215 16.0874 16.437C14.4048 17.9714 12.2049 18.8142 9.92778 18.7967C7.65062 18.7793 5.46397 17.9029 3.80504 16.3429H3.8084Z" fill="#31AD34"/>
</svg>
