<svg width="37" height="37" viewBox="0 0 37 37" fill="none" xmlns="http://www.w3.org/2000/svg">
<path fill-rule="evenodd" clip-rule="evenodd" d="M22.6598 0.469537L12.7958 17.5545L5.67276 5.16911C8.99861 1.96814 13.5195 0 18.5 0C19.9303 0 21.3227 0.162317 22.6598 0.469537ZM24.2272 0.903586L16.8042 13.7606H36.3873C34.7819 7.68522 30.1633 2.83432 24.2272 0.903586ZM36.8009 15.776H23.3347L32.1297 31.0094C35.1539 27.7161 37 23.3236 37 18.5C37 17.5745 36.932 16.665 36.8009 15.776ZM30.9761 32.1602L24.3443 20.6735L15.0983 36.6879C16.201 36.8929 17.338 37 18.5 37C23.3074 37 27.6865 35.1663 30.9761 32.1602ZM13.4955 36.3152L20.7007 23.8354L0.780973 23.8354C2.59618 29.8721 7.41206 34.6098 13.4955 36.3152ZM0.383064 22.2635C0.131943 21.0483 0 19.7896 0 18.5C0 13.8511 1.71476 9.60273 4.54628 6.35283L13.9124 22.2635H0.383064ZM23.5966 19.3785L23.5706 19.3635L23.5792 19.3485L23.5966 19.3785Z" fill="#7CD85B"/>
</svg>
